<?xml version="1.0" encoding="UTF-8"?>
<svg id="Capa_1" data-name="Capa 1" xmlns="http://www.w3.org/2000/svg" viewBox="0 0 119.02 105.79">
  <defs>
    <style>
      .cls-1 {
        stroke-width: 0px;
      }
    </style>
  </defs>
  <path class="cls-1" d="M109.12,62.26l9.77-42.98c.71-3.1-1.65-6.06-4.84-6.06H32.9l-1.89-9.26c-.47-2.31-2.5-3.97-4.86-3.97H4.96C2.22,0,0,2.22,0,4.96v3.31c0,2.74,2.22,4.96,4.96,4.96h14.44l14.52,70.96c-3.47,2-5.81,5.74-5.81,10.03,0,6.39,5.18,11.57,11.57,11.57s11.57-5.18,11.57-11.57c0-3.24-1.33-6.16-3.48-8.27h43.32c-2.14,2.1-3.48,5.03-3.48,8.27,0,6.39,5.18,11.57,11.57,11.57s11.57-5.18,11.57-11.57c0-4.58-2.66-8.54-6.53-10.41l1.14-5.02c.71-3.1-1.65-6.06-4.84-6.06h-55.46l-1.35-6.61h60.57c2.32,0,4.32-1.6,4.84-3.86Z"/>
</svg>